<svg xmlns="http://www.w3.org/2000/svg" data-name="Layer 1" width="440" height="244"><rect id="backgroundrect" width="100%" height="100%" fill="none"/><defs><style>.cls-1{fill:#ff5115}</style></defs><title>icon_01</title><g class="currentLayer"><title>Layer 1</title><path class="cls-1" d="M290.17 147.46l-138.46.62a6.3 6.3 0 0 0 .06 12.6l50.22-.23-5.72 17.41a3.4 3.4 0 0 0 3.4 3.37l42.84-.2a3.38 3.38 0 0 0 3.37-3.39L240 160.28l50.22-.22a6.3 6.3 0 0 0-.06-12.6z" id="svg_1"/><path class="cls-1" d="M192.15 215.51l7.63-17.51h-7.6c-.89 0-1.77-.13-1.77-1.86 0-1.28.18-1.49.82-1.49h11.23a1.42 1.42 0 0 1 1.59 1.61 5.85 5.85 0 0 1-.52 2.13l-7.09 17.5c-.22.55-.79.85-2.29.85s-2.37-.41-2-1.23z" id="svg_2"/><path class="cls-1" d="M210.26 215.84c0 .67-.43.91-2 .91s-2-.24-2-.91v-21.61c0-.67.39-.94 2-.94s2 .27 2 .94v11.2l3.41-4c.82-1 1.49-1.15 3.07-1.15 1 0 1.89.12 1.89.58 0 .21-.09.42-.43.79l-5.63 6.12 6.48 7.39c.34.43.49.64.49.85 0 .52-.7.7-2.07.7a3.26 3.26 0 0 1-3.1-1.37l-4.11-5z" id="svg_3"/><path class="cls-1" d="M228 223.63a10.42 10.42 0 0 1-3.16-.49c-1.07-.39-1.71-.91-1.71-1.88 0-.64.31-1.77.85-1.77a1.4 1.4 0 0 1 .64.22 8.07 8.07 0 0 0 3.38.7c2.13 0 3.9-1.07 3.9-4.08v-1.16a5.14 5.14 0 0 1-3.59 1.4c-5.12 0-7-3.53-7-8.06s2.1-8.31 6.91-8.31a5.25 5.25 0 0 1 3.71 1.58v-.67c0-.58.45-.79 1.92-.79s1.91.27 1.91.94V216c-.03 5.68-3.07 7.63-7.76 7.63zm3.26-11.44a5.28 5.28 0 0 0 .67-2.83V207c0-2.28-1.22-3.53-3.2-3.53-2.49 0-3.44 2.38-3.44 5.06 0 3 1.13 4.9 3.44 4.9a2.94 2.94 0 0 0 2.5-1.24z" id="svg_4"/><path class="cls-1" d="M199 114.72h-5.17V55.26H199zm-13.2-77.15h-16.72V27.09a2.08 2.08 0 0 1 2-2.11h12.62a2.09 2.09 0 0 1 2.05 2.11zm-24.22 77.15h-5.18V55.26h5.18zm39.84-77.15h-9.49V23.93a4.17 4.17 0 0 0-4.09-4.21H167a4.17 4.17 0 0 0-4 4.21v13.64h-9a8.33 8.33 0 0 0-8.24 8.43v77.8a8.33 8.33 0 0 0 7.92 8.4v3.91a2.07 2.07 0 0 0 2.07 2.07h3.51a2.07 2.07 0 0 0 2.07-2.07v-3.89H194v3.89a2.07 2.07 0 0 0 2.07 2.07h3.52a2.07 2.07 0 0 0 2.07-2.07v-3.91a8.32 8.32 0 0 0 7.91-8.4V46a8.32 8.32 0 0 0-8.17-8.42" id="svg_6"/><rect class="cls-1" x="253.39" y="108.4" width="12.11" height="9.27" rx="1.85" ry="1.85" id="svg_7"/><path class="cls-1" d="M289.59 89.48h-12.78v-3.7a7.43 7.43 0 0 0-7.42-7.42h-19.9a7.42 7.42 0 0 0-7.41 7.42v3.7H229.3a6.72 6.72 0 0 0-6.69 6.7v7.25a11.51 11.51 0 0 0 10.88 7.81h16.56v-1a5.2 5.2 0 0 1 5.19-5.19h8.41a5.2 5.2 0 0 1 5.19 5.19v1h19.53a8.53 8.53 0 0 0 7.91-5.36v-9.7a6.72 6.72 0 0 0-6.69-6.7zm-18.71 0H248v-3.7a1.5 1.5 0 0 1 1.48-1.49h19.9a1.51 1.51 0 0 1 1.49 1.49z" id="svg_8"/><path class="cls-1" d="M268.84 115v.86a5.2 5.2 0 0 1-5.19 5.19h-8.41a5.2 5.2 0 0 1-5.19-5.19V115h-16.56a15.14 15.14 0 0 1-10.88-4.61v21.15a6.71 6.71 0 0 0 6.69 6.69h60.29a6.71 6.71 0 0 0 6.69-6.69V112a12.23 12.23 0 0 1-7.91 2.92z" id="svg_9"/></g></svg>